<svg xmlns="http://www.w3.org/2000/svg" xmlns:xlink="http://www.w3.org/1999/xlink" width="853" height="730" fill="none"><g filter="url(#a)" opacity=".15" style="mix-blend-mode:screen"><path fill="url(#b)" d="M512.097 79.936a96.82 96.82 0 0 1-31.471 60.96L176.42 414.23a96.8 96.8 0 0 1-59.125 24.634l-10.073.583C48.3 442.85-.024 393.236 4.926 334.415l1.422-16.866a96.82 96.82 0 0 1 31.765-63.909L335.607-13.663a96.8 96.8 0 0 1 33.411-19.599 96.9 96.9 0 0 1 38.432-4.934l16.403 1.21c54.992 4.055 95.586 53.104 89.284 107.88z"/></g><path fill="#8ca4f8" d="M320.827-140.509a.3.3 0 0 0 .265.218.295.295 0 0 0 .292-.181.25.25 0 0 0 .011-.177.3.3 0 0 0-.097-.153.295.295 0 0 0-.459.115.26.26 0 0 0-.012.178M154.471-14.441a.293.293 0 0 0 .44.175.3.3 0 0 0 .117-.138.25.25 0 0 0 .011-.178.294.294 0 0 0-.557-.036.25.25 0 0 0-.011.177m50.175-10.98a.29.29 0 0 0 .265.218.29.29 0 0 0 .292-.18.25.25 0 0 0 .011-.178.295.295 0 0 0-.557-.037.25.25 0 0 0-.011.177m124.716 49.476a.293.293 0 0 0 .557.037.26.26 0 0 0 .011-.178.3.3 0 0 0-.266-.217.29.29 0 0 0-.291.18.25.25 0 0 0-.011.178m-23.866 29.87a.29.29 0 0 0 .44.175.3.3 0 0 0 .116-.14.25.25 0 0 0 .011-.176.296.296 0 0 0-.439-.174.3.3 0 0 0-.116.138.25.25 0 0 0-.012.177"/><path fill="#8ca4f8" fill-opacity=".8" d="M11.175 383.996a.295.295 0 0 0 .557.037.26.26 0 0 0 .013-.179.293.293 0 0 0-.44-.174.29.29 0 0 0-.13.316m3.778-289.88a.295.295 0 0 0 .557.037.26.26 0 0 0 .013-.18.296.296 0 0 0-.44-.173.3.3 0 0 0-.117.138.26.26 0 0 0-.013.178"/><path fill="#8ca4f8" d="M-33.6 116.979a.294.294 0 0 0 .57-.142.3.3 0 0 0-.099-.149.293.293 0 0 0-.457.113.26.26 0 0 0-.013.178Zm-40.846 114.849a.295.295 0 0 0 .529.072.3.3 0 0 0 .04-.214.293.293 0 0 0-.44-.174.29.29 0 0 0-.13.316Zm43.77 87.081a.294.294 0 0 0 .57-.142.293.293 0 0 0-.441-.174.29.29 0 0 0-.13.316Zm65.839 36.883a.295.295 0 0 0 .557.036.26.26 0 0 0 .013-.178.295.295 0 0 0-.53-.072.3.3 0 0 0-.04.214m-44.15 15.792a.295.295 0 0 0 .558.037.26.26 0 0 0 .012-.179.295.295 0 0 0-.557-.037.27.27 0 0 0-.012.179Zm26.513-41.83a.294.294 0 0 0 .57-.142.295.295 0 0 0-.557-.037.27.27 0 0 0-.013.179m-41.85-45.88c.08.276.438.297.557.037a.26.26 0 0 0 .013-.179.295.295 0 0 0-.557-.037.27.27 0 0 0-.013.179m-75.307 53.029a.294.294 0 0 0 .557.037.26.26 0 0 0 .013-.179.295.295 0 0 0-.529-.072.3.3 0 0 0-.04.214ZM262.24 12.035a.3.3 0 0 0 .266.218.29.29 0 0 0 .291-.18.25.25 0 0 0 .011-.178.297.297 0 0 0-.44-.175.3.3 0 0 0-.117.138.26.26 0 0 0-.011.177M95.014 43.861a.296.296 0 0 0 .44.175.3.3 0 0 0 .117-.138.25.25 0 0 0 .011-.178.295.295 0 0 0-.557-.036.26.26 0 0 0-.011.177m73.974-34.897a.297.297 0 0 0 .44.175.3.3 0 0 0 .116-.138.25.25 0 0 0 .012-.177.29.29 0 0 0-.266-.219.3.3 0 0 0-.291.182.25.25 0 0 0-.011.177m87.947-123.405a.295.295 0 0 0 .556.038.25.25 0 0 0 .011-.178.3.3 0 0 0-.097-.152.3.3 0 0 0-.168-.067.295.295 0 0 0-.291.182.25.25 0 0 0-.011.177"/><path fill="#8ca4f8" fill-opacity=".8" d="M134.068 274.485a.294.294 0 0 0 .557.037.26.26 0 0 0 .013-.179.29.29 0 0 0-.266-.218.29.29 0 0 0-.291.181.27.27 0 0 0-.013.179m49.555-350.18q.025.092.097.152a.3.3 0 0 0 .343.023.3.3 0 0 0 .116-.137.25.25 0 0 0 .011-.177.3.3 0 0 0-.097-.152.3.3 0 0 0-.343-.022.3.3 0 0 0-.116.137.26.26 0 0 0-.011.177Z"/><path fill="#8ca4f8" d="M375.527 26.823a.297.297 0 0 0 .44.175.3.3 0 0 0 .117-.138.25.25 0 0 0 .01-.177.296.296 0 0 0-.556-.037.25.25 0 0 0-.011.177"/><path fill="#8ca4f8" fill-opacity=".8" d="M336.14 90.006a.3.3 0 0 0 .265.217.29.29 0 0 0 .291-.18.25.25 0 0 0 .011-.177.295.295 0 0 0-.556-.037.25.25 0 0 0-.011.177m25.877-224.331q.025.092.097.152a.3.3 0 0 0 .344.022.3.3 0 0 0 .116-.138.24.24 0 0 0 .011-.177.292.292 0 0 0-.441-.175.3.3 0 0 0-.116.138.25.25 0 0 0-.011.178M273.915-11.838a.294.294 0 0 0 .557.036.25.25 0 0 0 .012-.177.294.294 0 0 0-.558-.037.25.25 0 0 0-.011.178m86.183-19.013a.295.295 0 0 0-.036.556c.056.026.119.03.178.012a.294.294 0 0 0 .036-.556.26.26 0 0 0-.178-.012"/><path fill="#8ca4f8" d="M284.207-80.288a.29.29 0 0 0 .265.217.29.29 0 0 0 .292-.18.25.25 0 0 0 .011-.177.295.295 0 0 0-.557-.038.25.25 0 0 0-.011.178M130.141 21.497a.29.29 0 0 0 .265.218.29.29 0 0 0 .291-.18.25.25 0 0 0 .012-.178.295.295 0 0 0-.557-.038.25.25 0 0 0-.011.178M40.129 41.103a.296.296 0 0 0 .44.173.3.3 0 0 0 .116-.137.25.25 0 0 0 .01-.177.293.293 0 0 0-.566.141"/><path fill="#8ca4f8" fill-opacity=".8" d="M81.61 28.604a.295.295 0 0 0 .557.036.25.25 0 0 0 .011-.178.295.295 0 0 0-.557-.035.26.26 0 0 0-.012.177ZM3.165 204.913c.08.276.438.296.557.036a.25.25 0 0 0 .008-.175.3.3 0 0 0-.265-.22.3.3 0 0 0-.292.183.25.25 0 0 0-.008.176"/><path fill="#8ca4f8" d="M312.752 55.875a.294.294 0 0 0 .44.175.3.3 0 0 0 .117-.138.25.25 0 0 0 .011-.177.295.295 0 0 0-.557-.037.25.25 0 0 0-.011.177M25.475 293.402a.295.295 0 0 0 .557.037.26.26 0 0 0 .013-.179.294.294 0 0 0-.557-.036.26.26 0 0 0-.013.178m25.221 41.634a.294.294 0 0 0 .556.036.25.25 0 0 0 .009-.174.29.29 0 0 0-.266-.22.29.29 0 0 0-.29.183.25.25 0 0 0-.009.175M10.981 229.309a.295.295 0 0 0 .557.037.27.27 0 0 0 .013-.179.295.295 0 0 0-.529-.072.3.3 0 0 0-.04.214ZM466.294-17.387a.294.294 0 0 0 .556.037.25.25 0 0 0 .011-.177.293.293 0 0 0-.44-.176.3.3 0 0 0-.115.14.26.26 0 0 0-.012.176m-489.74 376.711a.297.297 0 0 0 .175-.441.3.3 0 0 0-.139-.116.26.26 0 0 0-.179-.01.294.294 0 0 0-.036.556c.057.024.12.028.179.011m241.693-167.29q.025.092.098.152a.292.292 0 0 0 .459-.115.25.25 0 0 0 .011-.178.29.29 0 0 0-.265-.217.3.3 0 0 0-.175.043.3.3 0 0 0-.116.137.26.26 0 0 0-.012.178M184.451 19.78a.294.294 0 0 0 .557.036.25.25 0 0 0 .012-.177.294.294 0 0 0-.557-.037.25.25 0 0 0-.012.178m69.096 131.716a.29.29 0 0 0 .265.218.29.29 0 0 0 .291-.181.3.3 0 0 0-.017-.213.3.3 0 0 0-.371-.145.3.3 0 0 0-.156.145.25.25 0 0 0-.012.176"/><path fill="#8ca4f8" fill-opacity=".8" d="M-41.14 193.602c.08.277.442.294.556.037a.26.26 0 0 0 .013-.179.295.295 0 0 0-.557-.036.26.26 0 0 0-.013.178ZM431.148-15.979a.295.295 0 0 0 .556.037.26.26 0 0 0 .012-.177.294.294 0 0 0-.557-.037.25.25 0 0 0-.011.177"/><path fill="#8ca4f8" d="M489.327-75.472a.297.297 0 0 0 .441.174.3.3 0 0 0 .117-.138.25.25 0 0 0 .011-.177.294.294 0 0 0-.557-.037.26.26 0 0 0-.012.178m-78.396 40.169a.294.294 0 0 0 .557.036.26.26 0 0 0 .012-.177.297.297 0 0 0-.441-.175.3.3 0 0 0-.117.138.25.25 0 0 0-.011.178M303.12 107.429a.292.292 0 0 0 .441.174.3.3 0 0 0 .116-.138.25.25 0 0 0 .011-.178.3.3 0 0 0-.097-.152.3.3 0 0 0-.344-.022.3.3 0 0 0-.116.138.25.25 0 0 0-.011.178M141.23-55.108a.3.3 0 0 0 .265.22.29.29 0 0 0 .292-.183.26.26 0 0 0 .011-.178.3.3 0 0 0-.266-.217.29.29 0 0 0-.291.18.25.25 0 0 0-.011.178m-273.738 250.967a.294.294 0 0 0 .557.037.26.26 0 0 0 .012-.179.3.3 0 0 0-.097-.151.3.3 0 0 0-.343-.022.3.3 0 0 0-.116.137.26.26 0 0 0-.013.178m270.073 29.635c.08.276.438.297.556.037a.25.25 0 0 0 .009-.175.3.3 0 0 0-.098-.152.292.292 0 0 0-.459.115.25.25 0 0 0-.008.175m-6.166 28.451a.294.294 0 0 0 .557.037.26.26 0 0 0 .013-.179.3.3 0 0 0-.266-.216.3.3 0 0 0-.291.179.25.25 0 0 0-.013.179M343.059-82.14q.025.092.097.152a.3.3 0 0 0 .343.023.3.3 0 0 0 .116-.138.24.24 0 0 0 .011-.177.295.295 0 0 0-.556-.037.25.25 0 0 0-.011.177M290.756 76.663a.295.295 0 0 0 .557.036.26.26 0 0 0 .012-.177.294.294 0 0 0-.558-.037.25.25 0 0 0-.011.178M1.926 154.632c.08.276.437.297.556.036a.23.23 0 0 0 .008-.174.29.29 0 0 0-.262-.221.29.29 0 0 0-.29.18.24.24 0 0 0-.013.179Zm-56.463 135.309a.295.295 0 0 0 .557.037.26.26 0 0 0 .013-.179.293.293 0 0 0-.44-.174.29.29 0 0 0-.13.316M290.404 14.326a.296.296 0 0 1 .116.46.3.3 0 0 1-.152.098.25.25 0 0 1-.177-.012.294.294 0 0 1 .035-.557.26.26 0 0 1 .178.011M72.61 46.551a.296.296 0 0 1 .116.46.3.3 0 0 1-.151.098.25.25 0 0 1-.178-.012.295.295 0 0 1 .036-.557.26.26 0 0 1 .177.011M242.952-91.496a.29.29 0 0 1 .181.29.3.3 0 0 1-.065.168.3.3 0 0 1-.151.098.25.25 0 0 1-.177-.011.296.296 0 0 1-.117-.46.3.3 0 0 1 .152-.097.25.25 0 0 1 .177.012M112.774 9.722a.296.296 0 0 1 .116.46.3.3 0 0 1-.152.097.26.26 0 0 1-.178-.012.3.3 0 0 1-.137-.116.29.29 0 0 1 .022-.343.3.3 0 0 1 .151-.098.25.25 0 0 1 .178.012m-61.53 43.244a.294.294 0 0 1-.036.556.25.25 0 0 1-.177-.012.293.293 0 0 1 .035-.556.25.25 0 0 1 .177.012ZM294.185-70.146a.3.3 0 0 1 .182.291.295.295 0 0 1-.217.266.25.25 0 0 1-.177-.012.293.293 0 0 1 .035-.557.26.26 0 0 1 .177.012m87.011 49.26a.293.293 0 0 1-.557-.036.25.25 0 0 1 .012-.178.29.29 0 0 1 .29-.181.3.3 0 0 1 .266.217.25.25 0 0 1-.011.177Zm-18.953-99.921a.3.3 0 0 1 .137.116.295.295 0 0 1-.173.441.26.26 0 0 1-.177-.012.295.295 0 0 1 .035-.557.26.26 0 0 1 .178.012"/><path fill="#8ca4f8" fill-opacity=".8" d="M99.337 287.104a.294.294 0 0 1-.036.557.25.25 0 0 1-.174-.014.293.293 0 0 1 .035-.557.25.25 0 0 1 .174.014Z"/><path fill="#8ca4f8" d="M-43.15 256.387a.294.294 0 0 1-.214.546.293.293 0 0 1-.116-.459.3.3 0 0 1 .152-.098.27.27 0 0 1 .178.011m222.909-15.864a.295.295 0 0 1 .116.458.3.3 0 0 1-.151.098.25.25 0 0 1-.177-.012.295.295 0 0 1-.117-.459.3.3 0 0 1 .152-.097.25.25 0 0 1 .177.012m6.28-13.609a.295.295 0 0 1-.036.557.25.25 0 0 1-.177-.011.3.3 0 0 1-.183-.292.3.3 0 0 1 .067-.168.3.3 0 0 1 .152-.098.26.26 0 0 1 .177.012m113.888-354.578a.295.295 0 0 1-.036.557.25.25 0 0 1-.177-.012.293.293 0 0 1-.117-.459.3.3 0 0 1 .152-.098.25.25 0 0 1 .178.012m100.21 6.965a.3.3 0 0 1 .14.115.295.295 0 0 1-.022.344.3.3 0 0 1-.153.096.25.25 0 0 1-.177-.011.296.296 0 0 1-.116-.459.3.3 0 0 1 .151-.097.25.25 0 0 1 .177.012m-92.33 79.455a.3.3 0 0 1 .182.291.295.295 0 0 1-.217.266.25.25 0 0 1-.177-.012.292.292 0 0 1-.117-.46.3.3 0 0 1 .151-.097.26.26 0 0 1 .178.012m150.833-49.75a.295.295 0 0 1-.035.557.25.25 0 0 1-.178-.012.296.296 0 0 1-.117-.459.3.3 0 0 1 .152-.097.26.26 0 0 1 .178.011M-68.177 327.07a.295.295 0 0 1-.035.557.26.26 0 0 1-.18-.011.297.297 0 0 1-.114-.458.3.3 0 0 1 .15-.099.25.25 0 0 1 .179.011m16.527 37.032a.3.3 0 0 1 .115-.139.29.29 0 0 1 .343.023.3.3 0 0 1 .098.152.27.27 0 0 1-.013.179.298.298 0 0 1-.459.115.3.3 0 0 1-.097-.152.26.26 0 0 1 .013-.178m203.09-112.935a.295.295 0 0 1-.035.557.26.26 0 0 1-.179-.01.3.3 0 0 1-.182-.291.29.29 0 0 1 .217-.266.26.26 0 0 1 .179.01m190.459-310.59a.3.3 0 0 1 .182.291.295.295 0 0 1-.217.266.25.25 0 0 1-.177-.011.3.3 0 0 1-.139-.117.3.3 0 0 1 .022-.343.3.3 0 0 1 .152-.097.25.25 0 0 1 .177.012ZM287.014 137.8a.3.3 0 0 1 .138.117.3.3 0 0 1-.022.343.3.3 0 0 1-.152.097.25.25 0 0 1-.178-.011.297.297 0 0 1-.116-.46.3.3 0 0 1 .152-.098.26.26 0 0 1 .178.012m.713-45.424a.3.3 0 0 1 .137.116.3.3 0 0 1 .044.175.3.3 0 0 1-.065.168.3.3 0 0 1-.151.097.25.25 0 0 1-.177-.011.293.293 0 0 1 .034-.557.25.25 0 0 1 .178.012m-41.181 35.96a.297.297 0 0 1 .116.46.3.3 0 0 1-.152.097.25.25 0 0 1-.177-.011.298.298 0 0 1-.117-.46.3.3 0 0 1 .152-.097.25.25 0 0 1 .178.011M205.992-61.976a.295.295 0 0 1-.036.558.26.26 0 0 1-.178-.012.3.3 0 0 1-.137-.117.29.29 0 0 1 .022-.343.3.3 0 0 1 .151-.097.26.26 0 0 1 .178.01Z"/><path fill="#8ca4f8" fill-opacity=".8" d="M81.78 6.055a.296.296 0 0 1-.037.557.26.26 0 0 1-.177-.011.295.295 0 0 1 .036-.557.25.25 0 0 1 .178.01ZM54.974 82.312a.295.295 0 0 1-.036.557.26.26 0 0 1-.177-.011.296.296 0 0 1 .036-.558.26.26 0 0 1 .178.012Zm88.248-111.699a.293.293 0 0 1 .115.46.3.3 0 0 1-.152.098.25.25 0 0 1-.177-.012.3.3 0 0 1-.182-.291.295.295 0 0 1 .218-.265.26.26 0 0 1 .178.01"/><path fill="#8ca4f8" d="M111.965-28.96a.3.3 0 0 1 .182.29.295.295 0 0 1-.217.267.26.26 0 0 1-.178-.013.3.3 0 0 1-.137-.116.292.292 0 0 1 .173-.44.26.26 0 0 1 .177.012M362.25 15.316a.3.3 0 0 1 .182.29.295.295 0 0 1-.217.266.25.25 0 0 1-.177-.012.295.295 0 0 1 .035-.556.25.25 0 0 1 .177.012M3.06 123.115a.295.295 0 0 1-.036.557.26.26 0 0 1-.179-.01.295.295 0 0 1 .035-.557.24.24 0 0 1 .18.01m19.882-7.621a.3.3 0 0 1 .18.291.29.29 0 0 1-.216.266.24.24 0 0 1-.178-.01.294.294 0 0 1 .035-.557.26.26 0 0 1 .179.01M15.723 261.05a.294.294 0 0 1-.036.556.26.26 0 0 1-.179-.01.293.293 0 0 1-.115-.459.3.3 0 0 1 .151-.097.26.26 0 0 1 .18.01Z"/><path fill="#8ca4f8" fill-opacity=".8" d="M84.742 279.58a.295.295 0 0 1-.036.557.26.26 0 0 1-.178-.01.3.3 0 0 1-.183-.292.3.3 0 0 1 .066-.168.3.3 0 0 1 .152-.097.24.24 0 0 1 .179.01"/><path fill="#8ca4f8" d="M102.495 253.562a.295.295 0 0 1-.215.547.3.3 0 0 1-.179-.291.29.29 0 0 1 .215-.266.26.26 0 0 1 .179.01M-36.66 158.255c.26.12.234.477-.04.561a.25.25 0 0 1-.174-.014.29.29 0 0 1-.181-.291.3.3 0 0 1 .217-.266.27.27 0 0 1 .178.01M68.686 266.381a.29.29 0 0 1 .152.375.295.295 0 0 1-.366.171.3.3 0 0 1-.18-.291.29.29 0 0 1 .215-.266.25.25 0 0 1 .179.011m-9.753 38.584a.295.295 0 0 1-.036.557.294.294 0 0 1-.363-.302.3.3 0 0 1 .067-.168.3.3 0 0 1 .153-.097.27.27 0 0 1 .179.01m-92.755-64.7a.295.295 0 0 1-.035.557.26.26 0 0 1-.179-.01.297.297 0 0 1-.117-.46.3.3 0 0 1 .153-.097.26.26 0 0 1 .178.01m29.514 10.947a.295.295 0 0 1-.035.557.26.26 0 0 1-.179-.011.293.293 0 0 1-.116-.459.3.3 0 0 1 .151-.098.25.25 0 0 1 .18.011Zm-93.15-6.588a.294.294 0 0 1-.035.557.26.26 0 0 1-.18-.01.293.293 0 0 1-.115-.459.29.29 0 0 1 .33-.088m74.153-35.022a.295.295 0 0 1-.035.557.26.26 0 0 1-.179-.011.29.29 0 0 1-.152-.375.295.295 0 0 1 .366-.171m-75.53 60.424a.295.295 0 0 1-.035.557.26.26 0 0 1-.174-.014.297.297 0 0 1-.117-.46.3.3 0 0 1 .152-.097.25.25 0 0 1 .174.014M315.16-93.743a.3.3 0 0 1 .182.292.295.295 0 0 1-.217.265.25.25 0 0 1-.177-.012.292.292 0 0 1-.117-.459.3.3 0 0 1 .151-.097.25.25 0 0 1 .178.011M-60.25 175.601c.26.12.238.473-.035.557a.26.26 0 0 1-.18-.01.3.3 0 0 1-.135-.118.29.29 0 0 1 .022-.34.3.3 0 0 1 .15-.099.24.24 0 0 1 .178.01M32.798 71.487a.294.294 0 0 1-.035.557.25.25 0 0 1-.178-.012.295.295 0 0 1 .036-.556.26.26 0 0 1 .177.01Z"/><path fill="#8ca4f8" fill-opacity=".8" d="M-72.015 148.756a.296.296 0 0 1-.035.556.24.24 0 0 1-.18-.01.293.293 0 0 1-.115-.459.3.3 0 0 1 .151-.098.26.26 0 0 1 .18.011Zm172.247 82.076a.3.3 0 0 0 .098.151.3.3 0 0 0 .342.022.3.3 0 0 0 .117-.136.24.24 0 0 0 .012-.179.29.29 0 0 0-.265-.218.295.295 0 0 0-.291.182.25.25 0 0 0-.013.178"/><path fill="#8ca4f8" d="M8.865 233.089a.295.295 0 0 0 .556.037.24.24 0 0 0 .013-.179.295.295 0 0 0-.557-.036.26.26 0 0 0-.012.178"/><path fill="#8ca4f8" fill-opacity=".8" d="M54.348 245.679a.296.296 0 0 1 .153.375.295.295 0 0 1-.367.172.293.293 0 0 1 .035-.557.26.26 0 0 1 .18.01Zm-5.483-12.186a.294.294 0 0 1-.035.557.25.25 0 0 1-.175-.015.29.29 0 0 1-.182-.291.29.29 0 0 1 .218-.266.26.26 0 0 1 .174.015"/><path fill="#8ca4f8" d="M43.914 281.855a.294.294 0 0 1-.214.546.294.294 0 0 1 .036-.557.27.27 0 0 1 .178.011m37.209-69.024a.295.295 0 0 1-.036.557.26.26 0 0 1-.178-.01.3.3 0 0 1-.18-.295.3.3 0 0 1 .22-.266.25.25 0 0 1 .174.014"/><path fill="#8ca4f8" fill-opacity=".8" d="M69.358 185.986a.297.297 0 0 1 .114.459.3.3 0 0 1-.15.098.26.26 0 0 1-.178-.01.295.295 0 0 1 .035-.557.26.26 0 0 1 .179.01"/><path fill="#8ca4f8" d="M-4.051 177.229a.294.294 0 0 1-.214.547.295.295 0 0 1 .035-.557.26.26 0 0 1 .179.01m-90.01 122.914a.295.295 0 0 1-.035.557.25.25 0 0 1-.175-.014.295.295 0 0 1 .035-.557.25.25 0 0 1 .175.014m25.32 99.828a.293.293 0 0 1 .556.036.29.29 0 0 1-.129.316.29.29 0 0 1-.342-.022.3.3 0 0 1-.098-.151.26.26 0 0 1 .013-.179"/><path fill="#8ca4f8" fill-opacity=".8" d="M119.953 184.929a.296.296 0 0 0 .441.174.3.3 0 0 0 .116-.138.25.25 0 0 0 .011-.177.292.292 0 0 0-.441-.175.3.3 0 0 0-.116.138.25.25 0 0 0-.011.178"/><path fill="#8ca4f8" d="M78.1 119.841q.025.092.098.152a.293.293 0 0 0 .46-.115.26.26 0 0 0 .01-.178.296.296 0 0 0-.44-.174.3.3 0 0 0-.116.137.26.26 0 0 0-.011.178Zm65.841 36.884a.3.3 0 0 0 .265.218.3.3 0 0 0 .292-.182.26.26 0 0 0 .01-.177.294.294 0 0 0-.556-.037.25.25 0 0 0-.011.178m-44.15 15.793a.293.293 0 0 0 .44.174.3.3 0 0 0 .117-.138.24.24 0 0 0 .011-.177.3.3 0 0 0-.098-.152.292.292 0 0 0-.46.115.26.26 0 0 0-.01.178m85.962-121.093a.297.297 0 0 0 .44.175.3.3 0 0 0 .116-.138.25.25 0 0 0 .012-.178.29.29 0 0 0-.265-.217.29.29 0 0 0-.292.18.25.25 0 0 0-.011.178M84.455 84.806a.294.294 0 0 0 .556.037.25.25 0 0 0 .011-.177.295.295 0 0 0-.556-.037.25.25 0 0 0-.011.177M9.145 137.84a.3.3 0 0 0 .265.215.3.3 0 0 0 .291-.179.24.24 0 0 0 .013-.178.295.295 0 0 0-.57.142Z"/><path fill="#8ca4f8" fill-opacity=".8" d="M242.846 75.417a.295.295 0 0 0 .557.037.25.25 0 0 0 .011-.178.294.294 0 0 0-.44-.174.3.3 0 0 0-.117.138.26.26 0 0 0-.011.177"/><path fill="#8ca4f8" d="M193.701 15.074a.3.3 0 0 0 .265.218.29.29 0 0 0 .291-.18.25.25 0 0 0 .011-.178.295.295 0 0 0-.556-.037.25.25 0 0 0-.011.177m-34.23 120.897a.3.3 0 0 0 .266.218.3.3 0 0 0 .175-.044.3.3 0 0 0 .116-.138.26.26 0 0 0 .011-.177.294.294 0 0 0-.568.141M119.76 30.241a.296.296 0 0 0 .556.037.25.25 0 0 0 .011-.177.297.297 0 0 0-.44-.175.3.3 0 0 0-.116.138.25.25 0 0 0-.011.177M85.329 160.26a.3.3 0 0 0 .153-.097.29.29 0 0 0 .022-.344.3.3 0 0 0-.139-.115.25.25 0 0 0-.174-.015c-.273.085-.3.442-.037.556a.23.23 0 0 0 .175.015M246.34 26.429a.3.3 0 0 0 .265.219.29.29 0 0 0 .291-.18.26.26 0 0 0 .012-.179.295.295 0 0 0-.557-.037.25.25 0 0 0-.011.178Zm-6.164 28.45c.015.06.049.114.097.153a.29.29 0 0 0 .343.023.3.3 0 0 0 .117-.139.25.25 0 0 0 .011-.177.3.3 0 0 0-.266-.218.29.29 0 0 0-.291.18.25.25 0 0 0-.011.178M54.24 90.874a.295.295 0 0 0 .558.037.26.26 0 0 0 .011-.178.294.294 0 0 0-.557-.036.25.25 0 0 0-.012.177"/><path fill="#8ca4f8" fill-opacity=".8" d="M208.114 88.036a.29.29 0 0 1 .184.292.3.3 0 0 1-.067.168.3.3 0 0 1-.152.097.25.25 0 0 1-.177-.012.3.3 0 0 1-.182-.29.295.295 0 0 1 .217-.266.25.25 0 0 1 .177.011"/><path fill="#8ca4f8" d="M66.11 139.542a.294.294 0 0 1-.034.557.25.25 0 0 1-.175-.014.297.297 0 0 1-.117-.46.3.3 0 0 1 .152-.097.25.25 0 0 1 .175.014Z"/><path fill="#8ca4f8" fill-opacity=".8" d="M87.223 142.876a.295.295 0 0 1-.035.557.26.26 0 0 1-.178-.012.3.3 0 0 1-.137-.116.3.3 0 0 1 .021-.343.3.3 0 0 1 .151-.098.25.25 0 0 1 .178.012"/><path fill="#8ca4f8" d="M40.598 128.004a.292.292 0 0 1-.031.553.24.24 0 0 1-.179-.01.3.3 0 0 1-.183-.292.29.29 0 0 1 .218-.265.23.23 0 0 1 .175.014"/><path fill="#8ca4f8" fill-opacity=".8" d="M34.18 160.295a.295.295 0 0 1 .55.212.293.293 0 0 1-.557-.037.25.25 0 0 1 .008-.175Z"/><path fill="#8ca4f8" d="M57.125 165.037a.292.292 0 0 1 .556.036.25.25 0 0 1-.009.175.298.298 0 0 1-.56-.032.26.26 0 0 1 .013-.179M260.216 52.101a.3.3 0 0 1 .182.291.295.295 0 0 1-.218.266.26.26 0 0 1-.178-.012.296.296 0 0 1-.116-.46.3.3 0 0 1 .152-.097.25.25 0 0 1 .178.012m-135.718 9.885a.294.294 0 0 1 .117.459.3.3 0 0 1-.153.096.25.25 0 0 1-.177-.011.3.3 0 0 1-.138-.117.297.297 0 0 1 .173-.44.26.26 0 0 1 .178.013"/><path fill="#8ca4f8" fill-opacity=".8" d="M193.518 80.514a.3.3 0 0 1 .139.117.3.3 0 0 1-.022.343.3.3 0 0 1-.152.097.26.26 0 0 1-.178-.011.296.296 0 0 1-.116-.46.3.3 0 0 1 .152-.098.25.25 0 0 1 .177.012"/><path fill="#8ca4f8" d="M211.271 54.496a.3.3 0 0 1 .182.291.295.295 0 0 1-.217.266.25.25 0 0 1-.177-.012.3.3 0 0 1-.139-.116.3.3 0 0 1 .022-.343.3.3 0 0 1 .152-.098.25.25 0 0 1 .177.012m-33.809 12.818a.293.293 0 0 1 .117.46.3.3 0 0 1-.151.097.26.26 0 0 1-.178-.012.3.3 0 0 1-.182-.291.295.295 0 0 1 .217-.266.25.25 0 0 1 .177.012m49.695-40.676a.3.3 0 0 1 .182.29.29.29 0 0 1-.217.265.25.25 0 0 1-.177-.011.293.293 0 0 1 .035-.556.25.25 0 0 1 .177.012M104.47 52.145a.296.296 0 0 1 .116.46.3.3 0 0 1-.152.098.26.26 0 0 1-.178-.012.3.3 0 0 1-.182-.292.295.295 0 0 1 .218-.266.26.26 0 0 1 .178.012M40.034 200.907a.294.294 0 0 1 .556.036.25.25 0 0 1-.008.175.294.294 0 0 1-.557-.036.25.25 0 0 1 .009-.175m278.79-271.024a.296.296 0 0 1 .116.46.3.3 0 0 1-.151.097.25.25 0 0 1-.177-.012.3.3 0 0 1-.182-.29.3.3 0 0 1 .216-.266.26.26 0 0 1 .178.011M173.647-55.344a.295.295 0 0 1-.035.557.26.26 0 0 1-.178-.012.3.3 0 0 1-.137-.116.29.29 0 0 1 .022-.343.3.3 0 0 1 .151-.097.26.26 0 0 1 .177.011m15.912 14.6a.296.296 0 0 1 .117.459.3.3 0 0 1-.152.097.26.26 0 0 1-.178-.011.296.296 0 0 1 .036-.556.26.26 0 0 1 .177.01Zm81.455-9.886a.3.3 0 0 1 .139.116.3.3 0 0 1-.022.343.3.3 0 0 1-.152.098.25.25 0 0 1-.177-.012.3.3 0 0 1-.182-.29.295.295 0 0 1 .217-.266.25.25 0 0 1 .177.011M221.428-5.458a.293.293 0 0 1 .117.46.3.3 0 0 1-.152.097.26.26 0 0 1-.178-.012.3.3 0 0 1-.137-.116.3.3 0 0 1-.044-.175.3.3 0 0 1 .216-.266.26.26 0 0 1 .178.012m6.219-52.06a.3.3 0 0 1 .182.292.295.295 0 0 1-.218.266.25.25 0 0 1-.177-.012.294.294 0 0 1 .035-.557.26.26 0 0 1 .178.011m-46.948 264.774a.3.3 0 0 0 .265.218.295.295 0 0 0 .292-.181.25.25 0 0 0 .011-.177.293.293 0 0 0-.557-.037.26.26 0 0 0-.011.177"/><path fill="#8ca4f8" fill-opacity=".8" d="M159.676 156.982a.295.295 0 0 0 .557.037.25.25 0 0 0 .011-.178.3.3 0 0 0-.097-.152.3.3 0 0 0-.343-.023.3.3 0 0 0-.117.138.26.26 0 0 0-.011.178"/><path fill="#8ca4f8" d="M219.006 141.18a.3.3 0 0 1 .137.116.29.29 0 0 1-.021.342.3.3 0 0 1-.151.098.25.25 0 0 1-.177-.012.3.3 0 0 1-.138-.116.29.29 0 0 1 .021-.343.3.3 0 0 1 .152-.097.25.25 0 0 1 .177.012m-36.96 29.52a.295.295 0 0 1-.036.557.25.25 0 0 1-.177-.011.295.295 0 0 1 .035-.558.25.25 0 0 1 .178.012m-32.346 6.632a.293.293 0 0 1 .117.459.3.3 0 0 1-.151.097.25.25 0 0 1-.178-.012.3.3 0 0 1-.181-.291.29.29 0 0 1 .216-.265.25.25 0 0 1 .177.012"/><path fill="#8ca4f8" fill-opacity=".8" d="M193.852 142.406a.29.29 0 0 1 .182.291.3.3 0 0 1-.066.168.3.3 0 0 1-.151.097.25.25 0 0 1-.178-.011.298.298 0 0 1-.116-.46.3.3 0 0 1 .151-.097.25.25 0 0 1 .178.012"/><path fill="#8ca4f8" d="M165.613 191.931a.295.295 0 0 1-.035.557.25.25 0 0 1-.178-.012.3.3 0 0 1-.137-.116.3.3 0 0 1-.045-.175.3.3 0 0 1 .217-.266.26.26 0 0 1 .178.012m38.088-16.772a.3.3 0 0 1 .139.116.292.292 0 0 1-.174.441.25.25 0 0 1-.178-.012.295.295 0 0 1 .036-.557.26.26 0 0 1 .177.012M445.919-52.784a.3.3 0 0 1 .182.291.29.29 0 0 1-.218.266.25.25 0 0 1-.177-.012.3.3 0 0 1-.139-.116.3.3 0 0 1 .022-.343.3.3 0 0 1 .152-.098.26.26 0 0 1 .178.012M359.362 61.895a.3.3 0 0 1 .137.116.29.29 0 0 1-.022.342.3.3 0 0 1-.151.098.25.25 0 0 1-.177-.012.294.294 0 0 1 .036-.556.25.25 0 0 1 .177.012m53.851-32.98a.3.3 0 0 1 .183.292.3.3 0 0 1-.219.265.25.25 0 0 1-.177-.011.293.293 0 0 1 .035-.557.25.25 0 0 1 .178.011M398.243 11.5a.292.292 0 0 1-.035.557.25.25 0 0 1-.177-.012.3.3 0 0 1-.182-.29.295.295 0 0 1 .217-.266.25.25 0 0 1 .177.011m-74.961 60.45a.3.3 0 0 1 .139.116.3.3 0 0 1-.022.343.3.3 0 0 1-.152.097.25.25 0 0 1-.177-.012.3.3 0 0 1-.182-.291.295.295 0 0 1 .217-.265.25.25 0 0 1 .177.012m77.819-137.11a.3.3 0 0 1 .182.291.295.295 0 0 1-.218.266.25.25 0 0 1-.178-.012.3.3 0 0 1-.182-.291.295.295 0 0 1 .218-.266.25.25 0 0 1 .178.011Zm27.575-14.523a.3.3 0 0 1 .182.291.295.295 0 0 1-.217.266.25.25 0 0 1-.177-.012.292.292 0 0 1-.117-.459.3.3 0 0 1 .152-.098.25.25 0 0 1 .177.012m-35.082 22.001a.3.3 0 0 0 .266.218.29.29 0 0 0 .291-.18.25.25 0 0 0 .011-.178.295.295 0 0 0-.556-.037.26.26 0 0 0-.012.177M227.238 68.387a.3.3 0 0 0 .097.152.3.3 0 0 0 .344.022.3.3 0 0 0 .116-.138.25.25 0 0 0 .011-.178.293.293 0 0 0-.441-.174.3.3 0 0 0-.116.138.25.25 0 0 0-.011.177Zm50.175-10.98a.3.3 0 0 0 .266.217.29.29 0 0 0 .291-.18.25.25 0 0 0 .011-.178.295.295 0 0 0-.557-.037.25.25 0 0 0-.011.178m124.716 49.475a.3.3 0 0 0 .265.22.3.3 0 0 0 .292-.183.26.26 0 0 0 .011-.177.29.29 0 0 0-.265-.218.3.3 0 0 0-.292.181.25.25 0 0 0-.011.177m-23.866 29.87a.29.29 0 0 0 .265.22.29.29 0 0 0 .291-.184.26.26 0 0 0 .012-.177.295.295 0 0 0-.556-.036.26.26 0 0 0-.012.177"/><path fill="#8ca4f8" fill-opacity=".8" d="M83.942 466.823a.295.295 0 0 0 .557.037.26.26 0 0 0 .013-.179.293.293 0 0 0-.44-.174.29.29 0 0 0-.13.316m3.778-289.88a.295.295 0 0 0 .557.037.26.26 0 0 0 .013-.179.293.293 0 0 0-.44-.174.29.29 0 0 0-.13.316"/><path fill="#8ca4f8" d="M39.168 199.807a.294.294 0 0 0 .57-.142.3.3 0 0 0-.1-.15.29.29 0 0 0-.34-.023.3.3 0 0 0-.117.136.26.26 0 0 0-.013.179M-1.68 314.656a.295.295 0 0 0 .53.072.3.3 0 0 0 .04-.214.29.29 0 0 0-.266-.219.3.3 0 0 0-.291.182.26.26 0 0 0-.013.179m43.77 87.081a.3.3 0 0 0 .137.169.29.29 0 0 0 .392-.097.3.3 0 0 0 .04-.214.29.29 0 0 0-.265-.218.3.3 0 0 0-.175.043.3.3 0 0 0-.116.138.26.26 0 0 0-.013.179m65.839 36.882a.295.295 0 0 0 .557.037.26.26 0 0 0 .013-.179.296.296 0 0 0-.353-.199.3.3 0 0 0-.176.127c-.041.064-.055.141-.041.214M63.78 454.412a.295.295 0 0 0 .557.037.26.26 0 0 0 .013-.179.294.294 0 0 0-.557-.037.27.27 0 0 0-.013.179m26.513-41.83a.294.294 0 0 0 .57-.142.294.294 0 0 0-.558-.037.27.27 0 0 0-.012.179m-41.85-45.88a.294.294 0 0 0 .569-.142.293.293 0 0 0-.44-.174.29.29 0 0 0-.13.316Zm-75.308 53.029a.295.295 0 0 0 .557.037.26.26 0 0 0 .013-.179.295.295 0 0 0-.352-.199.294.294 0 0 0-.217.341ZM335.007 94.863q.025.091.097.151a.3.3 0 0 0 .343.023.3.3 0 0 0 .116-.137.24.24 0 0 0 .011-.177.295.295 0 0 0-.556-.037.25.25 0 0 0-.011.177m-167.226 31.826a.294.294 0 0 0 .557.037.25.25 0 0 0 .012-.178.3.3 0 0 0-.266-.219.3.3 0 0 0-.292.183.25.25 0 0 0-.011.177m73.974-34.897a.295.295 0 0 0 .557.037.25.25 0 0 0 .011-.178.29.29 0 0 0-.265-.218.29.29 0 0 0-.292.181.26.26 0 0 0-.011.178m87.947-123.405a.29.29 0 0 0 .265.218.29.29 0 0 0 .291-.18.25.25 0 0 0 .011-.178.292.292 0 0 0-.44-.175.3.3 0 0 0-.116.138.25.25 0 0 0-.011.177"/><path fill="#8ca4f8" fill-opacity=".8" d="M206.835 357.312a.294.294 0 0 0 .557.037.26.26 0 0 0 .013-.179.29.29 0 0 0-.266-.218.3.3 0 0 0-.174.044.29.29 0 0 0-.13.316M256.39 7.132a.29.29 0 0 0 .265.219.29.29 0 0 0 .291-.18.24.24 0 0 0 .011-.178.293.293 0 0 0-.556-.037.25.25 0 0 0-.011.177Z"/><path fill="#8ca4f8" d="M448.294 109.65a.29.29 0 0 0 .265.219.29.29 0 0 0 .292-.181.25.25 0 0 0 .011-.178.29.29 0 0 0-.265-.217.3.3 0 0 0-.292.18.25.25 0 0 0-.011.177"/><path fill="#8ca4f8" fill-opacity=".8" d="M408.907 172.833a.3.3 0 0 0 .265.218.3.3 0 0 0 .291-.181.24.24 0 0 0 .011-.177.3.3 0 0 0-.097-.152.294.294 0 0 0-.459.115.25.25 0 0 0-.011.177m25.877-224.33a.294.294 0 0 0 .557.035.25.25 0 0 0 .012-.177.294.294 0 0 0-.558-.036.25.25 0 0 0-.011.177Z"/><path fill="#8ca4f8" d="M416.428-20.037a.296.296 0 0 0 .441.176.3.3 0 0 0 .116-.139.25.25 0 0 0 .011-.177.296.296 0 0 0-.556-.037.26.26 0 0 0-.012.177m40.833 53.838a.297.297 0 0 0 .441.175.3.3 0 0 0 .117-.138.25.25 0 0 0 .011-.178.294.294 0 0 0-.557-.036.25.25 0 0 0-.012.177M440.011 8.02a.29.29 0 0 0 .265.218.29.29 0 0 0 .292-.18.25.25 0 0 0 .011-.178.295.295 0 0 0-.557-.037.26.26 0 0 0-.011.177M316.69 66.364a.293.293 0 0 0 .441.175.3.3 0 0 0 .116-.138.25.25 0 0 0 .011-.178.3.3 0 0 0-.097-.152.3.3 0 0 0-.344-.022.3.3 0 0 0-.116.138.25.25 0 0 0-.011.177"/><path fill="#8ca4f8" fill-opacity=".8" d="M346.682 70.99a.295.295 0 0 0 .558.037.25.25 0 0 0 .011-.178.294.294 0 0 0-.557-.036.26.26 0 0 0-.012.177m86.184-19.013a.294.294 0 0 0-.037.556c.056.026.119.03.178.012a.295.295 0 0 0 .218-.265.29.29 0 0 0-.182-.291.25.25 0 0 0-.177-.012"/><path fill="#8ca4f8" d="M356.974 2.54a.29.29 0 0 0 .265.217.29.29 0 0 0 .292-.18.25.25 0 0 0 .011-.178.295.295 0 0 0-.557-.037.25.25 0 0 0-.011.177ZM202.908 104.324a.29.29 0 0 0 .265.217.3.3 0 0 0 .175-.043.3.3 0 0 0 .116-.137.25.25 0 0 0 .012-.178.293.293 0 0 0-.557-.037.25.25 0 0 0-.011.178m-90.012 19.605q.025.092.097.152a.3.3 0 0 0 .343.022.3.3 0 0 0 .116-.137.25.25 0 0 0 .011-.177.3.3 0 0 0-.097-.153.29.29 0 0 0-.459.116.25.25 0 0 0-.011.177"/><path fill="#8ca4f8" fill-opacity=".8" d="M154.376 111.432a.296.296 0 0 0 .441.174.3.3 0 0 0 .117-.138.25.25 0 0 0 .011-.177.292.292 0 0 0-.441-.175.3.3 0 0 0-.116.138.26.26 0 0 0-.012.178M75.933 287.741c.08.276.438.296.557.036a.25.25 0 0 0 .008-.175.3.3 0 0 0-.265-.22.29.29 0 0 0-.292.183.25.25 0 0 0-.008.176"/><path fill="#8ca4f8" d="M385.519 138.702a.293.293 0 0 0 .557.037.25.25 0 0 0 .011-.177.293.293 0 0 0-.557-.037.25.25 0 0 0-.011.177M98.243 376.229a.295.295 0 0 0 .556.037.26.26 0 0 0 .013-.179.295.295 0 0 0-.557-.036.26.26 0 0 0-.012.178m25.22 41.634a.294.294 0 0 0 .556.036.25.25 0 0 0 .009-.174.292.292 0 0 0-.441-.176.3.3 0 0 0-.116.139.25.25 0 0 0-.008.175M83.749 312.136a.295.295 0 0 0 .556.037.27.27 0 0 0 .013-.179.295.295 0 0 0-.529-.072.3.3 0 0 0-.04.214M539.06 65.44a.29.29 0 0 0 .266.218.29.29 0 0 0 .291-.181.25.25 0 0 0 .01-.177.293.293 0 0 0-.567.14M49.321 442.151a.297.297 0 0 0 .175-.44.29.29 0 0 0-.318-.127.294.294 0 0 0-.036.556c.057.024.12.028.18.011Zm241.693-167.29a.292.292 0 0 0 .441.175.3.3 0 0 0 .116-.138.25.25 0 0 0 .011-.177.3.3 0 0 0-.097-.152.3.3 0 0 0-.343-.023.3.3 0 0 0-.116.138.26.26 0 0 0-.012.177m-33.796-172.254a.296.296 0 0 0 .441.175.3.3 0 0 0 .117-.138.25.25 0 0 0 .011-.178.296.296 0 0 0-.441-.175.3.3 0 0 0-.116.139.26.26 0 0 0-.012.177m69.096 131.717q.025.09.098.151a.293.293 0 0 0 .458-.115.294.294 0 0 0-.544-.213.26.26 0 0 0-.012.177"/><path fill="#8ca4f8" fill-opacity=".8" d="M31.626 276.43c.08.276.443.293.557.036a.26.26 0 0 0 .013-.178.294.294 0 0 0-.557-.037.27.27 0 0 0-.013.179m472.29-209.582a.295.295 0 0 0 .556.037.26.26 0 0 0 .012-.177.29.29 0 0 0-.266-.218.29.29 0 0 0-.291.181.25.25 0 0 0-.011.177"/><path fill="#8ca4f8" d="M562.095 7.355a.294.294 0 0 0 .557.037.25.25 0 0 0 .011-.178.293.293 0 0 0-.44-.175.3.3 0 0 0-.117.139.25.25 0 0 0-.011.177m-78.397 40.17a.294.294 0 0 0 .558.035.25.25 0 0 0 .011-.177.294.294 0 0 0-.557-.037.25.25 0 0 0-.012.178Zm-107.811 142.73a.296.296 0 0 0 .441.174.3.3 0 0 0 .116-.138.25.25 0 0 0 .012-.177.295.295 0 0 0-.558-.037.25.25 0 0 0-.011.178M213.997 27.719a.296.296 0 0 0 .441.175.3.3 0 0 0 .116-.138.25.25 0 0 0 .011-.178.29.29 0 0 0-.265-.217.29.29 0 0 0-.292.18.25.25 0 0 0-.011.178M-59.741 278.686a.295.295 0 0 0 .557.037.26.26 0 0 0 .013-.179.295.295 0 0 0-.557-.036.26.26 0 0 0-.013.178m270.073 29.635c.08.277.438.297.557.037a.26.26 0 0 0 .008-.175.292.292 0 0 0-.441-.175.3.3 0 0 0-.116.139.25.25 0 0 0-.008.174m-6.165 28.451a.294.294 0 0 0 .569-.142.3.3 0 0 0-.265-.215.3.3 0 0 0-.292.179.24.24 0 0 0-.012.178M415.826.688a.29.29 0 0 0 .265.217.29.29 0 0 0 .292-.18.25.25 0 0 0 .011-.178.295.295 0 0 0-.557-.037.26.26 0 0 0-.011.178M363.523 159.49a.29.29 0 0 0 .266.218.29.29 0 0 0 .292-.182.25.25 0 0 0 .011-.177.3.3 0 0 0-.098-.152.3.3 0 0 0-.168-.067.295.295 0 0 0-.291.182.26.26 0 0 0-.012.178m-288.83 77.969c.08.276.438.297.556.037a.23.23 0 0 0 .009-.175.29.29 0 0 0-.262-.22.29.29 0 0 0-.29.179.24.24 0 0 0-.014.179Z"/><path fill="#8ca4f8" fill-opacity=".8" d="M1.468 343.089c.08.276.439.297.557.037a.26.26 0 0 0 .013-.179.295.295 0 0 0-.557-.036.26.26 0 0 0-.013.178"/><path fill="#8ca4f8" d="M18.23 372.768a.295.295 0 0 0 .557.037.26.26 0 0 0 .013-.179.295.295 0 0 0-.557-.036.26.26 0 0 0-.013.178M363.171 97.154a.3.3 0 0 1 .138.116.293.293 0 0 1-.174.441.25.25 0 0 1-.177-.012.293.293 0 0 1 .036-.557.25.25 0 0 1 .177.012m-217.794 32.225a.29.29 0 0 1 .183.292.29.29 0 0 1-.218.265.25.25 0 0 1-.178-.011.297.297 0 0 1-.116-.46.3.3 0 0 1 .152-.098.26.26 0 0 1 .177.012M315.719-8.668a.3.3 0 0 1 .182.29.3.3 0 0 1-.216.266.26.26 0 0 1-.178-.012.295.295 0 0 1 .035-.556.25.25 0 0 1 .177.012M185.541 92.549a.296.296 0 0 1 .116.46.3.3 0 0 1-.152.097.25.25 0 0 1-.177-.011.3.3 0 0 1-.139-.117.295.295 0 0 1 .174-.44.25.25 0 0 1 .178.011m-61.53 43.245a.295.295 0 0 1 .116.458.3.3 0 0 1-.151.098.26.26 0 0 1-.178-.012.292.292 0 0 1-.117-.459.3.3 0 0 1 .153-.097.25.25 0 0 1 .177.012M366.952 12.682a.3.3 0 0 1 .182.29.295.295 0 0 1-.217.266.25.25 0 0 1-.177-.012.294.294 0 0 1 .035-.556.25.25 0 0 1 .177.012m87.011 49.259a.294.294 0 0 1-.557-.036.26.26 0 0 1 .012-.177.29.29 0 0 1 .291-.182.29.29 0 0 1 .265.217.25.25 0 0 1-.011.178M435.01-37.98a.3.3 0 0 1 .182.29.295.295 0 0 1-.217.266.26.26 0 0 1-.178-.012.296.296 0 0 1-.117-.459.3.3 0 0 1 .152-.097.26.26 0 0 1 .178.011Z"/><path fill="#8ca4f8" fill-opacity=".8" d="M172.104 369.932a.294.294 0 0 1-.036.557.24.24 0 0 1-.174-.014.3.3 0 0 1-.182-.292.29.29 0 0 1 .217-.265.25.25 0 0 1 .175.014"/><path fill="#8ca4f8" d="M18.805 296.611a.294.294 0 0 1-.036.556.24.24 0 0 1-.178-.01.293.293 0 0 1-.116-.459.3.3 0 0 1 .151-.097.26.26 0 0 1 .18.01Zm11.298 124.824a.295.295 0 0 1-.035.557.26.26 0 0 1-.18-.011.297.297 0 0 1 .036-.557.26.26 0 0 1 .18.011Z"/><path fill="#8ca4f8" fill-opacity=".8" d="M51.211 424.772a.292.292 0 0 1-.03.553.24.24 0 0 1-.18-.01.294.294 0 0 1 .035-.557.23.23 0 0 1 .175.014"/><path fill="#8ca4f8" d="M29.617 339.214a.294.294 0 0 1-.214.546.293.293 0 0 1 .036-.556.26.26 0 0 1 .178.01m222.909-15.864a.295.295 0 0 1-.034.556.25.25 0 0 1-.178-.012.295.295 0 0 1-.117-.459.3.3 0 0 1 .152-.097.25.25 0 0 1 .177.012m6.28-13.609a.296.296 0 0 1 .116.46.3.3 0 0 1-.151.097.25.25 0 0 1-.178-.011.3.3 0 0 1-.183-.292.3.3 0 0 1 .219-.266.26.26 0 0 1 .177.012M372.694-44.837a.3.3 0 0 1 .182.292.295.295 0 0 1-.218.265.25.25 0 0 1-.177-.011.294.294 0 0 1 .035-.558.25.25 0 0 1 .178.012m100.21 6.965a.293.293 0 0 1-.035.556.25.25 0 0 1-.177-.012.3.3 0 0 1-.182-.291.29.29 0 0 1 .217-.265.25.25 0 0 1 .177.012m-92.33 79.455a.29.29 0 0 1 .182.291.29.29 0 0 1-.217.266.29.29 0 0 1-.315-.128.292.292 0 0 1 .173-.44.25.25 0 0 1 .177.01Zm150.833-49.75a.3.3 0 0 1 .182.292.295.295 0 0 1-.217.265.25.25 0 0 1-.177-.011.293.293 0 0 1-.117-.46.3.3 0 0 1 .151-.097.26.26 0 0 1 .178.011M4.59 409.896a.295.295 0 0 1-.035.557.26.26 0 0 1-.179-.011.295.295 0 0 1 .035-.557.25.25 0 0 1 .18.011Zm16.527 37.033a.294.294 0 0 1 .556.036.29.29 0 0 1-.13.316.29.29 0 0 1-.341-.022.3.3 0 0 1-.098-.151.27.27 0 0 1 .013-.179m203.09-112.934a.295.295 0 0 1-.035.557.27.27 0 0 1-.179-.011.295.295 0 0 1 .035-.557.26.26 0 0 1 .179.011m190.459-310.59a.3.3 0 0 1 .182.291.295.295 0 0 1-.217.266.25.25 0 0 1-.177-.012.296.296 0 0 1-.117-.46.3.3 0 0 1 .152-.097.25.25 0 0 1 .177.012m-54.885 197.221a.297.297 0 0 1 .116.46.3.3 0 0 1-.152.098.25.25 0 0 1-.177-.012.29.29 0 0 1-.183-.292.3.3 0 0 1 .066-.168.3.3 0 0 1 .152-.097.25.25 0 0 1 .178.011m.713-45.424a.3.3 0 0 1 .137.117.3.3 0 0 1 .044.174.29.29 0 0 1-.216.266.25.25 0 0 1-.177-.012.3.3 0 0 1-.139-.116.3.3 0 0 1 .022-.343.3.3 0 0 1 .152-.098.26.26 0 0 1 .177.012m-41.181 35.96a.3.3 0 0 1 .183.292.3.3 0 0 1-.219.266.26.26 0 0 1-.177-.012.296.296 0 0 1-.116-.46.3.3 0 0 1 .152-.097.25.25 0 0 1 .177.011m-40.554-190.31a.3.3 0 0 1 .138.116.293.293 0 0 1-.174.44.25.25 0 0 1-.177-.01.3.3 0 0 1-.138-.117.293.293 0 0 1 .174-.441.25.25 0 0 1 .177.012m-83.497 54.66a.3.3 0 0 1 .182.292.3.3 0 0 1-.218.266.25.25 0 0 1-.178-.012.296.296 0 0 1-.116-.46.3.3 0 0 1 .152-.097.26.26 0 0 1 .178.01Z"/><path fill="#8ca4f8" fill-opacity=".8" d="M154.547 88.882a.293.293 0 0 1 .115.46.3.3 0 0 1-.151.098.25.25 0 0 1-.178-.011.296.296 0 0 1-.116-.46.3.3 0 0 1 .152-.098.26.26 0 0 1 .178.011m-26.805 76.258a.295.295 0 0 1-.036.557.25.25 0 0 1-.178-.012.295.295 0 0 1 .036-.557.25.25 0 0 1 .178.012m88.247-111.7a.3.3 0 0 1 .137.118.29.29 0 0 1-.022.343.3.3 0 0 1-.151.098.25.25 0 0 1-.178-.012.3.3 0 0 1-.183-.292.3.3 0 0 1 .219-.265.26.26 0 0 1 .178.01"/><path fill="#8ca4f8" d="M184.732 53.866a.3.3 0 0 1 .182.292.295.295 0 0 1-.217.265.25.25 0 0 1-.177-.012.292.292 0 0 1-.117-.459.3.3 0 0 1 .151-.097.26.26 0 0 1 .178.011m250.285 44.276a.3.3 0 0 1 .182.291.295.295 0 0 1-.217.266.25.25 0 0 1-.177-.012.294.294 0 0 1 .035-.557.25.25 0 0 1 .177.012m-359.19 107.8a.295.295 0 0 1-.036.557.27.27 0 0 1-.179-.011.3.3 0 0 1-.18-.291.29.29 0 0 1 .215-.266.25.25 0 0 1 .18.011m19.882-7.621a.3.3 0 0 1 .18.291.29.29 0 0 1-.215.266.25.25 0 0 1-.18-.011.294.294 0 0 1 .036-.557.27.27 0 0 1 .179.011M88.49 343.877a.294.294 0 0 1-.036.556.26.26 0 0 1-.179-.01.295.295 0 0 1 .036-.556.26.26 0 0 1 .18.01Z"/><path fill="#8ca4f8" fill-opacity=".8" d="M157.509 362.408a.295.295 0 0 1-.035.557.26.26 0 0 1-.179-.01.3.3 0 0 1-.182-.292.29.29 0 0 1 .217-.265.24.24 0 0 1 .179.01"/><path fill="#8ca4f8" d="M175.262 336.389a.295.295 0 0 1-.036.557.26.26 0 0 1-.178-.01.3.3 0 0 1-.137-.117.3.3 0 0 1 .022-.342.3.3 0 0 1 .15-.098.26.26 0 0 1 .179.01M36.107 241.082a.298.298 0 0 1-.04.561.25.25 0 0 1-.174-.014.295.295 0 0 1 .035-.557.26.26 0 0 1 .18.01Zm105.346 108.125a.3.3 0 0 1 .151.158c.028.07.028.148.001.218a.3.3 0 0 1-.149.158.3.3 0 0 1-.217.013.3.3 0 0 1-.136-.117.298.298 0 0 1 .171-.44.24.24 0 0 1 .179.01m-9.753 38.585a.295.295 0 0 1-.036.557.27.27 0 0 1-.178-.011.293.293 0 0 1 .214-.546m-92.754-64.7a.295.295 0 0 1-.036.557.27.27 0 0 1-.179-.011.295.295 0 0 1 .036-.557.26.26 0 0 1 .179.011m29.514 10.947a.295.295 0 0 1-.036.557.27.27 0 0 1-.179-.011.29.29 0 0 1-.182-.291.29.29 0 0 1 .218-.266.25.25 0 0 1 .178.011Zm-93.151-6.588a.294.294 0 0 1-.035.557.26.26 0 0 1-.18-.01.295.295 0 0 1 .036-.557.26.26 0 0 1 .179.01m74.153-35.023c.26.12.238.473-.035.557a.26.26 0 0 1-.179-.01.296.296 0 0 1-.152-.375.295.295 0 0 1 .366-.172m-75.53 60.425a.295.295 0 0 1-.035.557.25.25 0 0 1-.174-.015.292.292 0 0 1-.117-.459.3.3 0 0 1 .152-.098.25.25 0 0 1 .175.015ZM387.928-10.916a.3.3 0 0 1 .182.291.295.295 0 0 1-.217.266.25.25 0 0 1-.177-.012.292.292 0 0 1-.117-.459.3.3 0 0 1 .152-.098.25.25 0 0 1 .177.012M12.517 258.428a.295.295 0 0 1-.035.557.26.26 0 0 1-.18-.011.295.295 0 0 1 .035-.557.25.25 0 0 1 .18.011m93.048-104.115a.3.3 0 0 1 .139.117.3.3 0 0 1-.022.343.3.3 0 0 1-.152.098.25.25 0 0 1-.178-.012.295.295 0 0 1 .036-.557.25.25 0 0 1 .177.011"/><path fill="#8ca4f8" fill-opacity=".8" d="M.752 231.584a.297.297 0 0 1 .115.458.3.3 0 0 1-.15.099.25.25 0 0 1-.179-.011.293.293 0 0 1-.116-.459.3.3 0 0 1 .152-.098.26.26 0 0 1 .178.011M173 313.661a.3.3 0 0 0 .266.215.3.3 0 0 0 .291-.179.24.24 0 0 0 .013-.179.296.296 0 0 0-.441-.174.295.295 0 0 0-.129.317"/><path fill="#8ca4f8" d="M81.632 315.917a.294.294 0 0 0 .557.037.24.24 0 0 0 .013-.179.295.295 0 0 0-.557-.036.26.26 0 0 0-.013.178"/><path fill="#8ca4f8" fill-opacity=".8" d="M127.115 328.506a.293.293 0 0 1-.214.547.3.3 0 0 1-.182-.292.29.29 0 0 1 .218-.265.26.26 0 0 1 .178.01m-5.483-12.186a.294.294 0 0 1-.035.557.25.25 0 0 1-.175-.015.295.295 0 0 1-.116-.459.3.3 0 0 1 .152-.097.25.25 0 0 1 .174.014"/><path fill="#8ca4f8" d="M116.682 364.682a.294.294 0 0 1-.036.557.29.29 0 0 1-.316-.127.293.293 0 0 1 .173-.441.27.27 0 0 1 .179.011m37.208-69.024a.295.295 0 0 1-.035.557.26.26 0 0 1-.179-.01.3.3 0 0 1-.137-.119.3.3 0 0 1 .176-.442.25.25 0 0 1 .175.014"/><path fill="#8ca4f8" fill-opacity=".8" d="M142.125 268.814a.296.296 0 0 1 .115.459.3.3 0 0 1-.15.098.26.26 0 0 1-.179-.01.295.295 0 0 1 .035-.557.26.26 0 0 1 .179.01"/><path fill="#8ca4f8" d="M68.716 260.057a.3.3 0 0 1 .152.376.293.293 0 0 1-.366.171.295.295 0 0 1 .035-.557.26.26 0 0 1 .18.01Zm-90.01 122.915a.295.295 0 0 1-.035.557.25.25 0 0 1-.175-.015.295.295 0 0 1 .036-.557.25.25 0 0 1 .174.015M4.026 482.8a.29.29 0 0 1 .29-.184.3.3 0 0 1 .266.219.29.29 0 0 1-.13.316.29.29 0 0 1-.341-.022.3.3 0 0 1-.098-.151.26.26 0 0 1 .013-.178"/><path fill="#8ca4f8" fill-opacity=".8" d="M192.72 267.756a.29.29 0 0 0 .266.218.29.29 0 0 0 .291-.182.25.25 0 0 0 .012-.177.3.3 0 0 0-.266-.219.3.3 0 0 0-.292.182.25.25 0 0 0-.011.178"/><path fill="#8ca4f8" d="M150.868 202.669a.29.29 0 0 0 .265.219.3.3 0 0 0 .292-.182.25.25 0 0 0 .011-.177.3.3 0 0 0-.266-.218.3.3 0 0 0-.291.18.25.25 0 0 0-.011.178m65.84 36.884a.3.3 0 0 0 .265.218.3.3 0 0 0 .292-.182.26.26 0 0 0 .011-.177.296.296 0 0 0-.441-.175.3.3 0 0 0-.116.138.25.25 0 0 0-.011.178m-44.15 15.793a.3.3 0 0 0 .097.152.29.29 0 0 0 .343.022.3.3 0 0 0 .117-.138.24.24 0 0 0 .011-.177.3.3 0 0 0-.098-.152.3.3 0 0 0-.168-.067.295.295 0 0 0-.291.182.25.25 0 0 0-.011.178m85.962-121.093a.3.3 0 0 0 .265.219.3.3 0 0 0 .292-.182.25.25 0 0 0 .011-.178.29.29 0 0 0-.265-.217.3.3 0 0 0-.292.18.25.25 0 0 0-.011.178m-101.298 33.381a.29.29 0 0 0 .265.219.29.29 0 0 0 .291-.181.25.25 0 0 0 .011-.178.29.29 0 0 0-.265-.217.29.29 0 0 0-.291.18.25.25 0 0 0-.011.177m-75.31 53.033a.3.3 0 0 0 .265.215.3.3 0 0 0 .291-.179.24.24 0 0 0 .013-.178.295.295 0 0 0-.57.142Z"/><path fill="#8ca4f8" fill-opacity=".8" d="M315.613 158.244q.025.092.098.152a.294.294 0 0 0 .459-.115.25.25 0 0 0 .011-.177.3.3 0 0 0-.265-.219.3.3 0 0 0-.292.182.26.26 0 0 0-.011.177"/><path fill="#8ca4f8" d="M266.468 97.901a.3.3 0 0 0 .097.152.3.3 0 0 0 .343.022.3.3 0 0 0 .116-.137.25.25 0 0 0 .011-.177.293.293 0 0 0-.556-.037.25.25 0 0 0-.011.177m-34.229 120.897a.29.29 0 0 0 .265.218.3.3 0 0 0 .175-.044.3.3 0 0 0 .116-.138.25.25 0 0 0 .011-.177.294.294 0 0 0-.523-.068.3.3 0 0 0-.044.209m-39.712-105.73a.295.295 0 0 0 .556.038.25.25 0 0 0 .011-.178.3.3 0 0 0-.097-.152.3.3 0 0 0-.168-.067.295.295 0 0 0-.291.182.25.25 0 0 0-.011.177m-34.431 130.018a.3.3 0 0 0 .153-.097.295.295 0 0 0 .023-.344.3.3 0 0 0-.14-.115.25.25 0 0 0-.174-.015c-.273.085-.299.442-.036.557a.23.23 0 0 0 .174.014m161.011-133.829a.3.3 0 0 0 .265.218.3.3 0 0 0 .175-.044.29.29 0 0 0 .128-.315.29.29 0 0 0-.265-.218.29.29 0 0 0-.292.181.25.25 0 0 0-.011.178m-6.164 28.45a.292.292 0 0 0 .441.175.3.3 0 0 0 .116-.139.25.25 0 0 0 .011-.177.29.29 0 0 0-.265-.217.295.295 0 0 0-.292.18.25.25 0 0 0-.011.178m-185.936 35.994q.025.092.098.152a.29.29 0 0 0 .343.023.3.3 0 0 0 .117-.138.25.25 0 0 0 .011-.178.296.296 0 0 0-.441-.174.3.3 0 0 0-.116.138.26.26 0 0 0-.012.177"/><path fill="#8ca4f8" fill-opacity=".8" d="M280.882 170.864a.297.297 0 0 1 .117.46.3.3 0 0 1-.153.097.25.25 0 0 1-.177-.012.29.29 0 0 1-.181-.291.29.29 0 0 1 .216-.265.25.25 0 0 1 .178.011"/><path fill="#8ca4f8" d="M138.878 222.37a.294.294 0 0 1-.035.557.25.25 0 0 1-.175-.014.3.3 0 0 1-.139-.116.3.3 0 0 1 .022-.344.3.3 0 0 1 .152-.097.25.25 0 0 1 .175.014"/><path fill="#8ca4f8" fill-opacity=".8" d="M159.99 225.704a.293.293 0 0 1-.035.557.26.26 0 0 1-.177-.012.295.295 0 0 1 .034-.556.25.25 0 0 1 .178.011"/><path fill="#8ca4f8" d="M113.365 210.831a.292.292 0 0 1-.031.553.24.24 0 0 1-.179-.01.295.295 0 0 1 .036-.557.23.23 0 0 1 .174.014"/><path fill="#8ca4f8" fill-opacity=".8" d="M106.948 243.123a.295.295 0 0 1 .549.212.3.3 0 0 1-.116.139.3.3 0 0 1-.176.044.3.3 0 0 1-.168-.067.3.3 0 0 1-.097-.153.26.26 0 0 1 .008-.175"/><path fill="#8ca4f8" d="M129.892 247.864a.293.293 0 0 1 .556.036.25.25 0 0 1-.008.175.3.3 0 0 1-.117.138.3.3 0 0 1-.175.045.3.3 0 0 1-.269-.215.26.26 0 0 1 .013-.179m203.091-112.936a.295.295 0 0 1-.036.557.25.25 0 0 1-.178-.012.295.295 0 0 1 .036-.557.25.25 0 0 1 .178.012m-135.718 9.885a.29.29 0 0 1 .184.291.29.29 0 0 1-.219.264.25.25 0 0 1-.178-.011.3.3 0 0 1-.137-.117.3.3 0 0 1 .021-.341.3.3 0 0 1 .152-.098.25.25 0 0 1 .177.012"/><path fill="#8ca4f8" fill-opacity=".8" d="M266.286 163.341a.297.297 0 0 1 .116.46.3.3 0 0 1-.152.098.26.26 0 0 1-.178-.012.3.3 0 0 1-.138-.117.3.3 0 0 1 .022-.343.3.3 0 0 1 .152-.097.24.24 0 0 1 .178.011"/><path fill="#8ca4f8" d="M284.038 137.323a.29.29 0 0 1 .182.291.29.29 0 0 1-.217.266.26.26 0 0 1-.177-.012.296.296 0 0 1-.117-.459.3.3 0 0 1 .152-.098.25.25 0 0 1 .177.012m-33.808 12.818a.295.295 0 0 1-.035.557.26.26 0 0 1-.178-.012.295.295 0 0 1 .035-.557.26.26 0 0 1 .178.012m49.694-40.677a.3.3 0 0 1 .183.291.29.29 0 0 1-.218.266.26.26 0 0 1-.177-.012.3.3 0 0 1-.184-.291.3.3 0 0 1 .067-.168.3.3 0 0 1 .153-.097.25.25 0 0 1 .176.011m-122.687 25.508a.295.295 0 0 1-.036.557.25.25 0 0 1-.178-.011.292.292 0 0 1-.116-.46.3.3 0 0 1 .152-.098.26.26 0 0 1 .178.012m-64.436 148.762a.293.293 0 0 1 .556.036.25.25 0 0 1-.008.175.294.294 0 0 1-.557-.037.25.25 0 0 1 .009-.174M391.591 12.71a.294.294 0 0 1-.035.557.25.25 0 0 1-.177-.012.3.3 0 0 1-.182-.291.295.295 0 0 1 .216-.266.26.26 0 0 1 .178.012M246.414 27.483a.295.295 0 0 1-.035.556.25.25 0 0 1-.178-.011.3.3 0 0 1-.137-.116.293.293 0 0 1 .173-.441.26.26 0 0 1 .177.012m15.912 14.599a.292.292 0 0 1-.035.557.25.25 0 0 1-.177-.012.3.3 0 0 1-.182-.29.3.3 0 0 1 .065-.168.3.3 0 0 1 .151-.098.26.26 0 0 1 .178.011m81.455-9.885a.29.29 0 0 1 .183.291.295.295 0 0 1-.218.266.26.26 0 0 1-.177-.012.3.3 0 0 1-.182-.29.295.295 0 0 1 .217-.267.25.25 0 0 1 .177.012M294.195 77.37a.293.293 0 0 1 .117.46.3.3 0 0 1-.152.097.25.25 0 0 1-.177-.012.3.3 0 0 1-.182-.291.295.295 0 0 1 .216-.266.26.26 0 0 1 .178.012m6.219-52.06a.296.296 0 0 1 .116.46.3.3 0 0 1-.152.098.25.25 0 0 1-.177-.012.3.3 0 0 1-.139-.117.295.295 0 0 1 .174-.44.26.26 0 0 1 .178.011m-46.948 264.774a.295.295 0 0 0 .557.037.25.25 0 0 0 .011-.178.292.292 0 0 0-.44-.175.3.3 0 0 0-.117.139.26.26 0 0 0-.011.177"/><path fill="#8ca4f8" fill-opacity=".8" d="M232.444 239.809q.025.09.097.151a.3.3 0 0 0 .343.023.3.3 0 0 0 .116-.137.24.24 0 0 0 .011-.177.3.3 0 0 0-.097-.153.295.295 0 0 0-.459.115.25.25 0 0 0-.011.178"/><path fill="#8ca4f8" d="M291.773 224.007a.295.295 0 0 1 .116.458.3.3 0 0 1-.151.098.25.25 0 0 1-.177-.012.3.3 0 0 1-.138-.116.29.29 0 0 1 .021-.343.3.3 0 0 1 .152-.097.25.25 0 0 1 .177.012m-36.96 29.52a.3.3 0 0 1 .138.117.29.29 0 0 1-.174.44.25.25 0 0 1-.177-.011.3.3 0 0 1-.138-.117.29.29 0 0 1 .022-.343.3.3 0 0 1 .152-.098.26.26 0 0 1 .177.012m-32.345 6.632a.295.295 0 0 1-.035.557.25.25 0 0 1-.177-.012.296.296 0 0 1-.116-.459.3.3 0 0 1 .151-.098.26.26 0 0 1 .177.012"/><path fill="#8ca4f8" fill-opacity=".8" d="M266.619 225.233a.295.295 0 0 1 .117.459.3.3 0 0 1-.152.097.25.25 0 0 1-.178-.011.3.3 0 0 1-.182-.292.29.29 0 0 1 .217-.265.25.25 0 0 1 .178.012"/><path fill="#8ca4f8" d="M238.38 274.758a.295.295 0 0 1-.035.557.25.25 0 0 1-.178-.012.29.29 0 0 1-.181-.291.29.29 0 0 1 .216-.265.25.25 0 0 1 .178.011m38.088-16.772a.29.29 0 0 1 .183.292.3.3 0 0 1-.066.168.3.3 0 0 1-.152.097.25.25 0 0 1-.178-.011.292.292 0 0 1-.116-.46.3.3 0 0 1 .152-.098.26.26 0 0 1 .177.012M518.686 30.044a.3.3 0 0 1 .138.116.293.293 0 0 1-.173.44.25.25 0 0 1-.178-.01.3.3 0 0 1-.183-.292.3.3 0 0 1 .219-.266.25.25 0 0 1 .177.012m-86.557 114.679a.29.29 0 0 1 .181.291.29.29 0 0 1-.217.265.25.25 0 0 1-.176-.012.293.293 0 0 1-.117-.459.3.3 0 0 1 .152-.097.25.25 0 0 1 .177.012m53.851-32.98a.3.3 0 0 1 .139.116.3.3 0 0 1-.022.344.3.3 0 0 1-.152.097.25.25 0 0 1-.178-.011.292.292 0 0 1-.116-.46.3.3 0 0 1 .152-.098.25.25 0 0 1 .177.012m-14.97-17.415a.292.292 0 0 1 .117.46.3.3 0 0 1-.151.097.25.25 0 0 1-.178-.012.3.3 0 0 1-.182-.29.295.295 0 0 1 .217-.266.25.25 0 0 1 .177.011m-74.961 60.45a.29.29 0 0 1 .183.291.29.29 0 0 1-.217.265.25.25 0 0 1-.178-.012.3.3 0 0 1-.181-.291.29.29 0 0 1 .216-.265.25.25 0 0 1 .177.012m77.819-137.11a.3.3 0 0 1 .182.291.295.295 0 0 1-.218.266.25.25 0 0 1-.177-.012.294.294 0 0 1 .035-.557.25.25 0 0 1 .178.011Zm27.575-14.523a.3.3 0 0 1 .183.291.295.295 0 0 1-.218.266.25.25 0 0 1-.177-.012.292.292 0 0 1 .035-.557.25.25 0 0 1 .177.012"/><g filter="url(#c)" style="mix-blend-mode:plus-lighter"><path fill="url(#d)" fill-opacity=".4" d="M-94.57-154.037c-3.968-3.023-.733-9.287 4.03-7.801q.465.145.888.387l538.321 308.453c22.73 13.023 29.621 42.605 14.987 64.333-14.494 21.521-44.113 26.406-64.75 10.679z"/></g><g filter="url(#e)" style="mix-blend-mode:plus-lighter"><path fill="url(#f)" fill-opacity=".4" d="M-94.57-154.037c-3.968-3.023-.733-9.287 4.03-7.801q.465.145.888.387l538.321 308.453c22.73 13.023 29.621 42.605 14.987 64.333-14.494 21.521-44.113 26.406-64.75 10.679z"/></g><g filter="url(#g)" style="mix-blend-mode:plus-lighter"><path fill="url(#h)" fill-opacity=".4" d="M-94.57-154.037c-3.968-3.023-.733-9.287 4.03-7.801q.465.145.888.387l538.321 308.453c22.73 13.023 29.621 42.605 14.987 64.333-14.494 21.521-44.113 26.406-64.75 10.679z"/></g><mask id="k" width="612" height="538" x="0" y="0" maskUnits="userSpaceOnUse" style="mask-type:alpha"><path fill="url(#i)" fill-opacity=".2" d="M0 0h611.215v537.565H0z"/></mask><g filter="url(#j)" mask="url(#k)" style="mix-blend-mode:screen"><path fill="url(#l)" d="M806.348 537.565h806.348v537.565H806.348z" transform="rotate(180 806.348 537.565)"/></g><g opacity=".5"><g filter="url(#m)"><rect width="62.09" height="499.776" x="418.236" y="-170.353" fill="url(#n)" fill-opacity=".4" rx="31.045" transform="rotate(-39.553 418.236 -170.353)"/></g><g filter="url(#o)"><rect width="62.09" height="499.776" x="418.236" y="-170.353" fill="url(#p)" fill-opacity=".4" rx="31.045" transform="rotate(-39.553 418.236 -170.353)"/></g><g filter="url(#q)"><rect width="26.599" height="499.776" x="438.92" y="-181.652" fill="url(#r)" fill-opacity=".4" rx="13.3" transform="rotate(-39.553 438.92 -181.652)"/></g><g filter="url(#s)"><rect width="26.599" height="499.776" x="438.92" y="-181.652" fill="url(#t)" fill-opacity=".4" rx="13.3" transform="rotate(-39.553 438.92 -181.652)"/></g><g filter="url(#u)"><rect width="26.599" height="499.776" x="438.92" y="-181.652" fill="url(#v)" fill-opacity=".4" rx="13.3" transform="rotate(-39.553 438.92 -181.652)"/></g><g filter="url(#w)"><rect width="26.599" height="499.776" x="438.92" y="-181.652" fill="url(#x)" fill-opacity=".4" rx="13.3" transform="rotate(-39.553 438.92 -181.652)"/></g></g><defs><filter id="a" width="1088.7" height="1057.56" x="-285.169" y="-328.205" color-interpolation-filters="sRGB" filterUnits="userSpaceOnUse"><feFlood flood-opacity="0" result="BackgroundImageFix"/><feBlend in="SourceGraphic" in2="BackgroundImageFix" result="shape"/><feGaussianBlur result="effect1_foregroundBlur_3056_1639" stdDeviation="144.873"/></filter><filter id="c" width="798.118" height="623.717" x="-211.556" y="-277.266" color-interpolation-filters="sRGB" filterUnits="userSpaceOnUse"><feFlood flood-opacity="0" result="BackgroundImageFix"/><feBlend in="SourceGraphic" in2="BackgroundImageFix" result="shape"/><feGaussianBlur result="effect1_foregroundBlur_3056_1639" stdDeviation="57.602"/></filter><filter id="e" width="798.118" height="623.717" x="-211.556" y="-277.266" color-interpolation-filters="sRGB" filterUnits="userSpaceOnUse"><feFlood flood-opacity="0" result="BackgroundImageFix"/><feBlend in="SourceGraphic" in2="BackgroundImageFix" result="shape"/><feGaussianBlur result="effect1_foregroundBlur_3056_1639" stdDeviation="57.602"/></filter><filter id="g" width="798.118" height="623.717" x="-211.556" y="-277.266" color-interpolation-filters="sRGB" filterUnits="userSpaceOnUse"><feFlood flood-opacity="0" result="BackgroundImageFix"/><feBlend in="SourceGraphic" in2="BackgroundImageFix" result="shape"/><feGaussianBlur result="effect1_foregroundBlur_3056_1639" stdDeviation="57.602"/></filter><filter id="j" width="830.348" height="561.565" x="-12" y="-12" color-interpolation-filters="sRGB" filterUnits="userSpaceOnUse"><feFlood flood-opacity="0" result="BackgroundImageFix"/><feBlend in="SourceGraphic" in2="BackgroundImageFix" result="shape"/><feGaussianBlur result="effect1_foregroundBlur_3056_1639" stdDeviation="6"/></filter><filter id="m" width="500.804" height="559.565" x="350.896" y="-277.23" color-interpolation-filters="sRGB" filterUnits="userSpaceOnUse"><feFlood flood-opacity="0" result="BackgroundImageFix"/><feBlend in="SourceGraphic" in2="BackgroundImageFix" result="shape"/><feGaussianBlur result="effect1_foregroundBlur_3056_1639" stdDeviation="40"/></filter><filter id="o" width="500.804" height="559.565" x="350.896" y="-277.23" color-interpolation-filters="sRGB" filterUnits="userSpaceOnUse"><feFlood flood-opacity="0" result="BackgroundImageFix"/><feBlend in="SourceGraphic" in2="BackgroundImageFix" result="shape"/><feGaussianBlur result="effect1_foregroundBlur_3056_1639" stdDeviation="40"/></filter><filter id="q" width="487.912" height="551.438" x="364.343" y="-273.167" color-interpolation-filters="sRGB" filterUnits="userSpaceOnUse"><feFlood flood-opacity="0" result="BackgroundImageFix"/><feBlend in="SourceGraphic" in2="BackgroundImageFix" result="shape"/><feGaussianBlur result="effect1_foregroundBlur_3056_1639" stdDeviation="40"/></filter><filter id="s" width="487.912" height="551.438" x="364.343" y="-273.167" color-interpolation-filters="sRGB" filterUnits="userSpaceOnUse"><feFlood flood-opacity="0" result="BackgroundImageFix"/><feBlend in="SourceGraphic" in2="BackgroundImageFix" result="shape"/><feGaussianBlur result="effect1_foregroundBlur_3056_1639" stdDeviation="40"/></filter><filter id="u" width="487.912" height="551.438" x="364.343" y="-273.167" color-interpolation-filters="sRGB" filterUnits="userSpaceOnUse"><feFlood flood-opacity="0" result="BackgroundImageFix"/><feBlend in="SourceGraphic" in2="BackgroundImageFix" result="shape"/><feGaussianBlur result="effect1_foregroundBlur_3056_1639" stdDeviation="40"/></filter><filter id="w" width="487.912" height="551.438" x="364.343" y="-273.167" color-interpolation-filters="sRGB" filterUnits="userSpaceOnUse"><feFlood flood-opacity="0" result="BackgroundImageFix"/><feBlend in="SourceGraphic" in2="BackgroundImageFix" result="shape"/><feGaussianBlur result="effect1_foregroundBlur_3056_1639" stdDeviation="40"/></filter><linearGradient id="b" x1="465.081" x2="55.056" y1="13.238" y2="381.632" gradientUnits="userSpaceOnUse"><stop offset=".069" stop-color="#194fff"/><stop offset="1" stop-color="#809dff"/></linearGradient><linearGradient id="d" x1="-116.978" x2="463.845" y1="-180.132" y2="211.056" gradientUnits="userSpaceOnUse"><stop offset=".19" stop-color="#00020f" stop-opacity="0"/><stop offset=".73" stop-color="#0f2f99" stop-opacity=".5"/><stop offset=".892" stop-color="#1a4fff" stop-opacity=".5"/><stop offset=".943" stop-color="#99b1ff"/></linearGradient><linearGradient id="f" x1="-116.978" x2="463.845" y1="-180.132" y2="211.056" gradientUnits="userSpaceOnUse"><stop offset=".19" stop-color="#00020f" stop-opacity="0"/><stop offset=".73" stop-color="#0f2f99" stop-opacity=".5"/><stop offset=".892" stop-color="#1a4fff" stop-opacity=".5"/><stop offset=".943" stop-color="#99b1ff"/></linearGradient><linearGradient id="h" x1="-116.978" x2="463.845" y1="-180.132" y2="211.056" gradientUnits="userSpaceOnUse"><stop offset=".19" stop-color="#00020f" stop-opacity="0"/><stop offset=".73" stop-color="#0f2f99" stop-opacity=".5"/><stop offset=".892" stop-color="#1a4fff" stop-opacity=".5"/><stop offset=".943" stop-color="#99b1ff"/></linearGradient><linearGradient id="n" x1="449.281" x2="449.281" y1="-170.353" y2="329.423" gradientUnits="userSpaceOnUse"><stop offset=".19" stop-color="#00020f" stop-opacity="0"/><stop offset=".73" stop-color="#1339b9"/><stop offset="1" stop-color="#809dff"/></linearGradient><linearGradient id="p" x1="449.281" x2="449.281" y1="-170.353" y2="329.423" gradientUnits="userSpaceOnUse"><stop offset=".19" stop-color="#00020f" stop-opacity="0"/><stop offset=".73" stop-color="#1339b9"/><stop offset="1" stop-color="#809dff"/></linearGradient><linearGradient id="r" x1="452.219" x2="452.219" y1="-181.652" y2="318.123" gradientUnits="userSpaceOnUse"><stop offset=".19" stop-color="#00020f" stop-opacity="0"/><stop offset=".73" stop-color="#1339b9"/><stop offset="1" stop-color="#809dff"/></linearGradient><linearGradient id="t" x1="452.219" x2="452.219" y1="-181.652" y2="318.123" gradientUnits="userSpaceOnUse"><stop offset=".19" stop-color="#00020f" stop-opacity="0"/><stop offset=".73" stop-color="#1339b9"/><stop offset="1" stop-color="#809dff"/></linearGradient><linearGradient id="v" x1="452.219" x2="452.219" y1="-181.652" y2="318.123" gradientUnits="userSpaceOnUse"><stop offset=".19" stop-color="#00020f" stop-opacity="0"/><stop offset=".73" stop-color="#1339b9"/><stop offset="1" stop-color="#809dff"/></linearGradient><linearGradient id="x" x1="452.219" x2="452.219" y1="-181.652" y2="318.123" gradientUnits="userSpaceOnUse"><stop offset=".19" stop-color="#00020f" stop-opacity="0"/><stop offset=".73" stop-color="#1339b9"/><stop offset="1" stop-color="#809dff"/></linearGradient><radialGradient id="i" cx="0" cy="0" r="1" gradientTransform="rotate(44.025)scale(773.505 879.48)" gradientUnits="userSpaceOnUse"><stop offset=".353" stop-color="#cfd9fc"/><stop offset="1" stop-color="#cfd9fc" stop-opacity="0"/></radialGradient><pattern id="l" width="1" height="1" patternContentUnits="objectBoundingBox"><use xlink:href="#y" transform="scale(.00033 .0005)"/></pattern><image xlink:href="hero-bg-support.jpg" id="y" width="3000" height="2000"/></defs></svg>